<svg width="57" height="47" viewBox="0 0 57 47" fill="none" xmlns="http://www.w3.org/2000/svg">
<path d="M55.7752 22.301L50.5706 13.8982C50.6819 13.6909 50.7655 13.4574 50.7655 13.198C50.7655 12.42 50.0697 11.7716 49.2347 11.7456L43.4735 2.46115C43.5292 2.30556 43.5848 2.14997 43.5848 1.99438C43.5848 1.16452 42.8612 0.516113 41.9983 0.516113C41.4974 0.516113 41.0799 0.723601 40.7737 1.06073H29.6967C29.4184 0.723698 29.0009 0.51621 28.4999 0.51621C27.999 0.51621 27.5815 0.723698 27.3032 1.06083H16.2818C15.9756 0.723698 15.5582 0.51621 15.0572 0.51621C14.1944 0.51621 13.4707 1.16452 13.4707 1.99447C13.4707 2.15007 13.5264 2.33161 13.5821 2.46125L7.76518 11.8755C7.20866 12.1088 6.81891 12.6016 6.81891 13.1981C6.81891 13.2499 6.84675 13.3018 6.84675 13.3537L1.30817 22.2751C0.556726 22.4048 0 23.0013 0 23.7274C0 24.4276 0.528775 25.0242 1.25248 25.1797L6.98588 34.4124C6.93019 34.568 6.90234 34.6976 6.90234 34.8792C6.90234 35.5794 7.43112 36.1759 8.15482 36.3056L13.5264 44.9935C13.4707 45.1491 13.4151 45.3306 13.4151 45.5122C13.4151 46.342 14.1387 46.9904 15.0016 46.9904C15.5025 46.9904 15.92 46.783 16.1984 46.4718H27.3033C27.5815 46.7829 28.0269 46.9903 28.4999 46.9903C28.973 46.9903 29.4184 46.7829 29.6967 46.4717H40.8295C41.1077 46.7569 41.5252 46.9384 41.9706 46.9384C42.8612 46.9384 43.557 46.2642 43.557 45.4602C43.557 45.3046 43.5293 45.1749 43.4736 45.0453L48.8452 36.3055C49.5688 36.1758 50.0977 35.5793 50.0977 34.8791C50.0977 34.7235 50.0698 34.5679 50.0141 34.4123L55.7197 25.1796C56.4433 25.05 57 24.4535 57 23.7273C56.9998 23.0271 56.4709 22.4306 55.7752 22.301ZM14.5283 42.6074L9.99177 35.2681H14.5283V42.6074ZM14.5283 34.4901H9.99177C9.96392 34.3864 9.90823 34.2827 9.85264 34.1789L14.5283 29.5886V34.4901ZM14.5283 28.4474L9.29591 33.6083C9.15678 33.5564 9.01755 33.4786 8.87842 33.4527L3.08953 24.1164C3.14512 23.9867 3.14512 23.857 3.14512 23.7273C3.14512 23.5977 3.14512 23.494 3.11727 23.3902L8.51672 14.6763C8.79509 14.6504 9.07335 14.5725 9.32386 14.4169L14.5284 19.4482V28.4474H14.5283ZM14.5283 18.5404L9.7691 13.9501C9.90823 13.7427 9.99177 13.4834 9.99177 13.1981C9.99177 13.1722 9.96392 13.1203 9.96392 13.0943L14.5283 11.5642V18.5404ZM14.5283 10.7342L9.99177 12.2644L14.5283 4.95091V10.7342ZM48.4554 14.5207L48.539 14.6504L44.8651 30.8333L38.2411 24.3238L48.4276 14.4948L48.4554 14.5207ZM28.8896 33.3489L30.0864 34.4901H27.7207L28.8896 33.3489ZM28.8617 32.2597L20.2061 23.9867L28.4721 15.8174L37.1 24.2979L28.8617 32.2597ZM29.4184 32.8303L37.6566 24.8685L44.6702 31.767L44.058 34.4901H31.1718L29.4184 32.8303ZM41.2191 3.26525C41.3304 3.31715 41.4417 3.36904 41.5809 3.39499L47.5926 13.1462V13.1981C47.5926 13.4834 47.676 13.7427 47.8153 13.9501L37.6845 23.7533L29.0567 15.2728L41.2191 3.26525ZM40.2729 3.05776L28.4721 14.7022L22.5439 8.86703L39.8274 3.05776H40.2729ZM27.4423 3.05776C27.7206 3.31705 28.0823 3.47264 28.4999 3.47264C28.9175 3.47264 29.2792 3.31705 29.5576 3.05776H37.3505L21.9317 8.24457L16.6436 3.05776H27.4423ZM15.3634 3.60238L15.4747 3.39499C15.5686 3.37263 15.6614 3.34666 15.753 3.31715L21.0689 8.53L15.3634 10.4491V3.60238ZM15.3634 11.2789L21.6811 9.15236L27.8876 15.2728L19.6216 23.4161L15.3634 19.3445V11.2789ZM15.3634 20.2521L19.1484 23.9089L15.3634 27.6175V20.2521ZM15.3634 28.7586L19.7329 24.4536L28.333 32.7785L26.5517 34.4901H15.3634V28.7586ZM16.087 44.4488C15.92 44.2932 15.7252 44.1895 15.4747 44.1117L15.3634 43.9561V35.2681H25.7446L16.2261 44.4488H16.087ZM29.5854 44.4488C29.3071 44.2155 28.9175 44.0339 28.4999 44.0339C28.0823 44.0339 27.6929 44.2155 27.4144 44.4488H17.3949L26.9134 35.2681H30.8934L40.4119 44.4488H29.5854ZM42.0541 43.3077L41.6088 44.0338C41.4697 44.0598 41.3584 44.1116 41.247 44.1635L31.979 35.268H43.8633L42.0541 43.3077ZM43.3899 41.1551L44.7259 35.2681H47.0081L43.3899 41.1551ZM47.0081 34.4901H44.8929L45.366 32.4413L47.1473 34.2048C47.0917 34.2826 47.036 34.3863 47.0081 34.4901ZM53.8826 24.0904L48.1214 33.4527C47.9822 33.5045 47.843 33.5564 47.7039 33.6342L45.5608 31.5076L49.1512 15.6359L53.9104 23.3125C53.8826 23.4421 53.8269 23.5717 53.8269 23.7273C53.8269 23.857 53.8548 23.9608 53.8826 24.0904Z" fill="#27AE60"/>
</svg>
