<svg width="45" height="47" viewBox="0 0 45 47" fill="none" xmlns="http://www.w3.org/2000/svg">
<path d="M44.1461 15.0124L23.5797 0.852249C22.8777 0.406113 22.1285 0.402028 21.4201 0.852249L0.853768 15.0124C0.326425 15.3754 0 16.0239 0 16.6722V30.8323C0 31.4807 0.326425 32.129 0.853856 32.4921L21.4202 46.6543C22.1222 47.1004 22.8714 47.1045 23.5798 46.6543L44.1461 32.4921C44.6735 32.1291 45 31.4807 45 30.8323V16.6722C44.9999 16.0239 44.6735 15.3754 44.1461 15.0124ZM24.4335 6.24647L39.5758 16.6722L32.8208 21.3404L24.4335 15.557V6.24647ZM20.5664 6.24647V15.557L12.1791 21.3404L5.42407 16.6722L20.5664 6.24647ZM3.86718 20.4068L8.71372 23.7523L3.86718 27.0978V20.4068ZM20.5664 41.2581L5.42407 30.8324L12.1791 26.1641L20.5664 31.9476V41.2581ZM22.5 28.4723L15.6695 23.7523L22.5 19.0322L29.3304 23.7523L22.5 28.4723ZM24.4335 41.2581V31.9476L32.8208 26.1641L39.5758 30.8324L24.4335 41.2581ZM41.1327 27.0978L36.2862 23.7523L41.1327 20.4068V27.0978Z" fill="#27AE60"/>
</svg>
