<svg width="51" height="47" viewBox="0 0 51 47" fill="none" xmlns="http://www.w3.org/2000/svg">
<path d="M13.6744 18.804C13.2327 18.5031 12.7898 18.3527 12.3481 18.3527H10.3628V29.1902H12.3493C12.791 29.1902 13.2338 29.0397 13.6755 28.7389C14.1172 28.4381 14.3381 27.9868 14.3381 27.3841V20.1588C14.3369 19.5571 14.1149 19.1048 13.6744 18.804ZM46.0025 0.516113H4.99754C2.24263 0.516113 0.00683036 2.54833 0 5.05981V42.4468C0.00683036 44.9582 2.24263 46.9904 4.99754 46.9904H46.0025C48.7585 46.9904 50.9932 44.9582 51 42.4468V5.05981C50.9932 2.54833 48.7574 0.516113 46.0025 0.516113ZM17.554 27.4038C17.554 29.3551 16.2323 32.3116 12.0487 32.3054H6.76661V15.141H12.1603C16.1948 15.141 17.5517 18.0934 17.5529 20.0457L17.554 27.4038ZM29.0154 18.2064H22.95V22.192H26.6577V25.2595H22.95V29.2441H29.0165V32.3116H21.938C20.6675 32.3417 19.6111 31.4267 19.5792 30.269V17.2904C19.5485 16.1338 20.5537 15.1732 21.823 15.1441H29.0165L29.0154 18.2064ZM40.8137 30.1663C39.311 33.3562 36.6187 32.7214 35.4131 30.1663L31.0269 15.1452H34.7346L38.1168 26.9422L41.483 15.1452H45.1919L40.8137 30.1663Z" fill="#27AE60"/>
</svg>
